<svg width="32" height="36" viewBox="0 0 32 36" fill="none" xmlns="http://www.w3.org/2000/svg">
<path d="M8.79688 17.5332V18.2266L11.54 20.1875V18.0029L9.73926 16.7969L8.79688 17.5332ZM20.2861 18.0029V20.1875L23.0293 18.2266V17.5332L22.0859 16.7969L20.2861 18.0029ZM30.8262 8.6875L30.7305 8.89062L28.8232 12.9258V16.3281L28.7188 16.5381L27.9805 18.0225V22.0195L27.8047 22.2754L23.9746 27.8467V30.0332L23.5957 30.334L20.2363 32.9941L19.1631 34.5645L18.8652 35H12.9609L12.6631 34.5645L11.5898 32.9951L8.23047 30.334L7.85156 30.0332V27.8467L4.02148 22.2754L3.8457 22.0195V18.0225L3.10742 16.5381L3.00293 16.3281V12.9258L1.0957 8.89062L1 8.6875V3.38574L1.1748 3.13086L2.33398 1.43555L2.63184 1H6.51465L6.80566 1.28027L11.5605 5.87402H20.1719L25.0273 1.27441L25.3174 1H29.0625L29.3623 1.40234L30.6279 3.09766L30.8262 3.36328V8.6875Z" fill="#D88C00" stroke="white" stroke-width="2"/>
</svg>
